<?xml version="1.0" encoding="utf-8"?>
<!-- Generator: Adobe Illustrator 23.0.6, SVG Export Plug-In . SVG Version: 6.00 Build 0)  -->
<svg version="1.1" id="Layer_1" xmlns="http://www.w3.org/2000/svg" xmlns:xlink="http://www.w3.org/1999/xlink" x="0px" y="0px"
	 viewBox="0 0 238.1 51.3" style="enable-background:new 0 0 238.1 51.3;" xml:space="preserve">
<style type="text/css">
	.st0{enable-background:new    ;}
	.st1{fill:#67B3AD;}
	.st2{fill:none;stroke:#FFFFFF;stroke-width:2;}
	.st3{fill:none;stroke:#FFFFFF;stroke-width:2;stroke-linecap:square;}
</style>
<g>
	<g>
		<g class="st0">
			<path class="st1" d="M13.2,12H16v17.6h10.3v2.6h-13V12z"/>
			<path class="st1" d="M29.8,16.5c0-0.4,0.2-0.8,0.5-1c0.3-0.3,0.7-0.4,1.1-0.4s0.7,0.1,1.1,0.4c0.3,0.3,0.5,0.6,0.5,1
				c0,0.4-0.2,0.8-0.5,1c-0.3,0.3-0.7,0.4-1.1,0.4s-0.8-0.1-1.1-0.4C30,17.3,29.8,16.9,29.8,16.5z M30,20.7h2.6v11.6H30V20.7z"/>
			<path class="st1" d="M39.5,20.7l0.2,2.8l-0.1-0.4c0.4-0.9,1-1.5,1.8-2.1c0.8-0.5,1.8-0.8,2.9-0.8c1.1,0,2,0.3,2.7,1
				c0.7,0.6,1.1,1.5,1.1,2.5v8.6h-2.6v-7.7c0-0.6-0.2-1.1-0.5-1.5c-0.3-0.4-0.9-0.6-1.6-0.6c-0.7,0-1.3,0.2-1.8,0.6
				c-0.6,0.4-1,0.9-1.3,1.5c-0.3,0.7-0.5,1.4-0.5,2.3v5.4h-2.6V20.7H39.5z"/>
			<path class="st1" d="M56.3,32.7c-1.1,0-2-0.3-2.6-1c-0.7-0.6-1-1.5-1.1-2.5v-8.6h2.6v7.6c0,0.6,0.2,1.1,0.6,1.5s0.9,0.6,1.6,0.6
				c0.6,0,1.2-0.2,1.7-0.6c0.5-0.4,0.9-0.9,1.2-1.6c0.3-0.7,0.5-1.4,0.5-2.3v-5.4h2.6v11.6H61l-0.2-2.9l0.2,0.5
				c-0.2,0.5-0.6,1-1,1.4c-0.4,0.4-1,0.8-1.6,1S57,32.7,56.3,32.7z"/>
			<path class="st1" d="M71.1,32.5c-0.8,0-1.6-0.1-2.4-0.4c-0.8-0.3-1.4-0.7-1.9-1.3l1.1-1.5c0.5,0.5,1,0.8,1.5,1.1s1,0.3,1.5,0.3
				c0.4,0,0.7,0,1-0.1s0.6-0.3,0.8-0.5c0.2-0.2,0.3-0.5,0.3-0.9c0-0.4-0.1-0.8-0.4-1c-0.3-0.2-0.6-0.4-1-0.6
				c-0.4-0.1-0.9-0.3-1.3-0.4c-1-0.3-1.7-0.8-2.2-1.3c-0.5-0.6-0.8-1.2-0.8-2c0-0.6,0.2-1.2,0.5-1.7c0.3-0.5,0.8-1,1.4-1.3
				c0.6-0.3,1.4-0.5,2.2-0.5c0.8,0,1.5,0.1,2.2,0.3c0.6,0.2,1.2,0.5,1.8,1l-1,1.6c-0.3-0.4-0.7-0.6-1.2-0.8
				c-0.5-0.2-0.9-0.3-1.2-0.3c-0.3,0-0.6,0.1-0.9,0.2c-0.3,0.1-0.5,0.3-0.7,0.4c-0.2,0.2-0.3,0.4-0.3,0.7c0,0.4,0.1,0.7,0.4,0.9
				c0.3,0.2,0.6,0.4,1,0.6c0.4,0.1,0.8,0.3,1.3,0.4c0.6,0.2,1.1,0.4,1.5,0.7c0.4,0.3,0.8,0.6,1.1,1c0.3,0.4,0.4,0.9,0.4,1.5
				c0,0.7-0.2,1.3-0.5,1.9c-0.3,0.6-0.8,1.1-1.5,1.4C73,32.3,72.2,32.5,71.1,32.5z"/>
			<path class="st1" d="M99.3,15.6c-0.7-0.4-1.4-0.7-2.3-0.9c-0.8-0.3-1.6-0.4-2.4-0.4c-1.1,0-1.9,0.3-2.6,0.8s-1,1.2-1,2
				c0,0.6,0.2,1.2,0.6,1.6c0.4,0.4,1,0.8,1.6,1.1s1.4,0.6,2.1,0.9c0.6,0.2,1.2,0.5,1.8,0.8c0.6,0.3,1.2,0.7,1.7,1.1
				c0.5,0.4,0.9,1,1.2,1.7c0.3,0.7,0.4,1.5,0.4,2.4c0,1.1-0.3,2.1-0.8,2.9c-0.5,0.9-1.3,1.6-2.3,2.1c-1,0.5-2.2,0.8-3.6,0.8
				c-0.9,0-1.7-0.1-2.5-0.3c-0.8-0.2-1.6-0.5-2.3-0.8c-0.7-0.3-1.3-0.7-1.8-1l1.2-2.1c0.4,0.3,1,0.6,1.5,0.9
				c0.6,0.3,1.2,0.5,1.8,0.7c0.6,0.2,1.3,0.3,1.8,0.3c0.7,0,1.3-0.1,1.9-0.3c0.6-0.2,1.1-0.6,1.5-1.1c0.4-0.5,0.6-1.1,0.6-1.9
				c0-0.7-0.2-1.2-0.5-1.7c-0.4-0.5-0.8-0.9-1.4-1.2c-0.6-0.3-1.2-0.6-1.9-0.9c-0.7-0.2-1.3-0.5-1.9-0.8c-0.6-0.3-1.2-0.7-1.8-1.1
				c-0.6-0.4-1-0.9-1.3-1.6c-0.3-0.6-0.5-1.4-0.5-2.2c0-1.1,0.3-2,0.8-2.8c0.5-0.8,1.2-1.4,2.1-1.9c0.9-0.5,1.9-0.7,3.1-0.7
				c1.3,0,2.5,0.2,3.5,0.5s1.9,0.7,2.6,1.1L99.3,15.6z"/>
			<path class="st1" d="M105.5,15.6h2.7v5.2h3.2v2h-3.2v9.5h-2.7v-9.5h-2.1v-2h2.1V15.6z"/>
			<path class="st1" d="M116.8,20.7l0.3,3.4l-0.1-0.5c0.3-0.7,0.7-1.3,1.3-1.8s1.2-0.9,1.8-1.1c0.6-0.3,1.2-0.4,1.6-0.4l-0.1,2.6
				c-0.9-0.1-1.7,0.1-2.3,0.5c-0.7,0.4-1.2,0.9-1.6,1.6c-0.4,0.6-0.6,1.3-0.6,2.1v5.3h-2.6V20.7H116.8z"/>
			<path class="st1" d="M129.8,32.5c-1.1,0-2.1-0.2-3-0.7c-0.9-0.5-1.6-1.2-2.1-2.1c-0.5-0.9-0.8-2-0.8-3.3s0.3-2.4,0.8-3.4
				c0.5-0.9,1.3-1.7,2.2-2.2c0.9-0.5,1.9-0.8,3-0.8c1.1,0,2,0.2,2.8,0.7c0.8,0.5,1.3,1.1,1.7,1.8l-0.2,0.4l0.3-2.4h2.4v11.6h-2.6v-3
				l0.3,0.7c-0.1,0.2-0.3,0.4-0.5,0.7s-0.6,0.6-1,0.9c-0.4,0.3-0.9,0.5-1.4,0.7C131.1,32.4,130.5,32.5,129.8,32.5z M130.5,30.4
				c0.7,0,1.2-0.1,1.8-0.4c0.5-0.2,1-0.6,1.3-1c0.3-0.4,0.6-1,0.7-1.6v-2.3c-0.1-0.6-0.4-1-0.8-1.5s-0.8-0.7-1.3-1
				c-0.5-0.2-1.1-0.4-1.7-0.4c-0.7,0-1.4,0.2-1.9,0.5s-1,0.8-1.4,1.4c-0.3,0.6-0.5,1.3-0.5,2.1c0,0.7,0.2,1.4,0.5,2s0.8,1.1,1.4,1.5
				C129.2,30.2,129.8,30.4,130.5,30.4z"/>
			<path class="st1" d="M143.8,20.7l0.2,2.8l-0.1-0.4c0.4-0.9,1-1.5,1.8-2.1c0.8-0.5,1.8-0.8,2.9-0.8c1.1,0,2,0.3,2.7,1
				c0.7,0.6,1.1,1.5,1.1,2.5v8.6h-2.6v-7.7c0-0.6-0.2-1.1-0.5-1.5c-0.3-0.4-0.9-0.6-1.6-0.6c-0.7,0-1.3,0.2-1.8,0.6
				c-0.6,0.4-1,0.9-1.3,1.5c-0.3,0.7-0.5,1.4-0.5,2.3v5.4h-2.6V20.7H143.8z"/>
			<path class="st1" d="M162.5,38c-0.9,0-1.6-0.1-2.3-0.3c-0.7-0.2-1.3-0.5-1.8-0.8c-0.5-0.4-1-0.7-1.6-1.2l1.5-1.8
				c0.6,0.6,1.2,1,1.9,1.3s1.3,0.5,2.1,0.5c0.9,0,1.6-0.1,2.2-0.4s1.1-0.7,1.4-1.2c0.3-0.5,0.5-1.1,0.5-1.8l0-3.1l0.2,0.5
				c-0.3,0.8-0.9,1.5-1.8,2c-0.9,0.5-1.9,0.8-3.2,0.8c-1,0-2-0.3-2.9-0.8s-1.6-1.3-2.2-2.2c-0.5-0.9-0.8-2-0.8-3.1
				c0-1.2,0.3-2.3,0.8-3.2c0.6-0.9,1.3-1.7,2.2-2.2c0.9-0.5,1.9-0.8,3-0.8c1,0,2,0.2,2.8,0.6c0.8,0.4,1.5,1,1.9,1.6l-0.2,0.5
				l0.3-2.2h2.4v11.7c0,1-0.3,2-0.8,2.9c-0.5,0.9-1.3,1.5-2.3,2.1C165,37.8,163.9,38,162.5,38z M158.5,26.4c0,0.7,0.2,1.4,0.5,2
				c0.4,0.6,0.8,1.1,1.5,1.5c0.6,0.4,1.3,0.5,2,0.5c0.7,0,1.3-0.1,1.9-0.4c0.6-0.3,1-0.6,1.4-1c0.4-0.4,0.6-0.9,0.8-1.5v-2.3
				c-0.2-0.6-0.4-1-0.8-1.5c-0.4-0.4-0.9-0.7-1.4-1c-0.5-0.2-1.1-0.4-1.8-0.4c-0.7,0-1.4,0.2-2,0.5c-0.6,0.3-1.1,0.8-1.5,1.4
				C158.7,24.9,158.5,25.6,158.5,26.4z"/>
			<path class="st1" d="M176.9,32.5c-0.8,0-1.6-0.1-2.4-0.4c-0.8-0.3-1.4-0.7-1.9-1.3l1.1-1.5c0.5,0.5,1,0.8,1.5,1.1s1,0.3,1.5,0.3
				c0.4,0,0.7,0,1-0.1s0.6-0.3,0.8-0.5c0.2-0.2,0.3-0.5,0.3-0.9c0-0.4-0.1-0.8-0.4-1c-0.3-0.2-0.6-0.4-1-0.6
				c-0.4-0.1-0.9-0.3-1.3-0.4c-1-0.3-1.7-0.8-2.2-1.3c-0.5-0.6-0.8-1.2-0.8-2c0-0.6,0.2-1.2,0.5-1.7c0.3-0.5,0.8-1,1.4-1.3
				c0.6-0.3,1.4-0.5,2.2-0.5c0.8,0,1.5,0.1,2.2,0.3c0.6,0.2,1.2,0.5,1.8,1l-1,1.6c-0.3-0.4-0.7-0.6-1.2-0.8
				c-0.5-0.2-0.9-0.3-1.2-0.3c-0.3,0-0.6,0.1-0.9,0.2c-0.3,0.1-0.5,0.3-0.7,0.4c-0.2,0.2-0.3,0.4-0.3,0.7c0,0.4,0.1,0.7,0.4,0.9
				c0.3,0.2,0.6,0.4,1,0.6c0.4,0.1,0.8,0.3,1.3,0.4c0.6,0.2,1.1,0.4,1.5,0.7c0.4,0.3,0.8,0.6,1.1,1c0.3,0.4,0.4,0.9,0.4,1.5
				c0,0.7-0.2,1.3-0.5,1.9c-0.3,0.6-0.8,1.1-1.5,1.4C178.8,32.3,177.9,32.5,176.9,32.5z"/>
			<path class="st1" d="M186.1,15.6h2.7v5.2h3.2v2h-3.2v9.5h-2.7v-9.5H184v-2h2.1V15.6z"/>
			<path class="st1" d="M199.9,32.5c-1.1,0-2.1-0.2-3-0.7c-0.9-0.5-1.6-1.2-2.1-2.1c-0.5-0.9-0.8-2-0.8-3.3s0.3-2.4,0.8-3.4
				c0.5-0.9,1.3-1.7,2.2-2.2c0.9-0.5,1.9-0.8,3-0.8c1.1,0,2,0.2,2.8,0.7c0.8,0.5,1.3,1.1,1.7,1.8l-0.2,0.4l0.3-2.4h2.4v11.6h-2.6v-3
				l0.3,0.7c-0.1,0.2-0.3,0.4-0.5,0.7s-0.6,0.6-1,0.9c-0.4,0.3-0.9,0.5-1.4,0.7C201.2,32.4,200.6,32.5,199.9,32.5z M200.6,30.4
				c0.7,0,1.2-0.1,1.8-0.4c0.5-0.2,1-0.6,1.3-1c0.3-0.4,0.6-1,0.7-1.6v-2.3c-0.1-0.6-0.4-1-0.8-1.5s-0.8-0.7-1.3-1
				c-0.5-0.2-1.1-0.4-1.7-0.4c-0.7,0-1.4,0.2-1.9,0.5s-1,0.8-1.4,1.4c-0.3,0.6-0.5,1.3-0.5,2.1c0,0.7,0.2,1.4,0.5,2s0.8,1.1,1.4,1.5
				C199.3,30.2,199.9,30.4,200.6,30.4z"/>
			<path class="st1" d="M216.2,32.5c-1.1,0-2.1-0.3-2.9-0.8c-0.9-0.5-1.5-1.2-2.1-2.2c-0.5-0.9-0.8-2-0.8-3.3c0-1.3,0.3-2.4,0.8-3.3
				c0.5-0.9,1.3-1.6,2.2-2.1c0.9-0.5,1.9-0.7,3.1-0.7c0.9,0,1.8,0.2,2.6,0.6c0.8,0.4,1.5,0.9,1.9,1.6l-0.1,0.9V10.6h2.6v21.7H221
				v-2.9l0.3,0.7c-0.6,0.7-1.3,1.3-2.1,1.8S217.3,32.5,216.2,32.5z M217,30.3c0.7,0,1.3-0.1,1.8-0.4c0.5-0.3,1-0.6,1.3-1
				c0.4-0.4,0.6-1,0.8-1.6v-2.2c-0.1-0.6-0.4-1.1-0.8-1.5c-0.4-0.4-0.8-0.8-1.4-1s-1.1-0.3-1.8-0.3c-0.7,0-1.3,0.2-1.9,0.5
				c-0.6,0.3-1.1,0.8-1.4,1.4c-0.4,0.6-0.5,1.3-0.5,2.1c0,0.8,0.2,1.5,0.5,2.1s0.8,1.1,1.4,1.5C215.7,30.2,216.3,30.3,217,30.3z"/>
		</g>
	</g>
	<path class="st2" d="M5.8,19.8v-15 M20.8,4.8h-15"/>
	<path class="st3" d="M231.6,26.3v15 M216.1,41.3h15"/>
</g>
</svg>
